<svg xmlns="http://www.w3.org/2000/svg" viewBox="0 0 815.25 539.35"><defs><style>.cls-1,.cls-2{fill-rule:evenodd;}.cls-2{fill:#006cb7;}</style></defs><title>iconAsset 1</title><g id="Layer_2" data-name="Layer 2"><g id="Layer_2-2" data-name="Layer 2"><path class="cls-1" d="M636.25,471.85a92.64,92.64,0,0,1,12.48,4.1l-5.13,9.18a41.94,41.94,0,0,0-11.7-3.33,36.3,36.3,0,0,0-4.65-.3,23.3,23.3,0,0,0-17,6.8,22.59,22.59,0,0,0-6.9,16.75q0,10.4,6.9,17t17.75,6.6a27.26,27.26,0,0,0,3.9-.3,39.13,39.13,0,0,0,4.12-.8l0-18.7H622.8V500.1h26.05v33.6a65.12,65.12,0,0,1-17,4.68,57.71,57.71,0,0,1-6,.47q-16.54.35-26.45-9a31.16,31.16,0,0,1-9.9-23.5,33.82,33.82,0,0,1,10.25-25q10.25-10.1,25.75-10.45a45.82,45.82,0,0,1,6.35.25A41.08,41.08,0,0,1,636.25,471.85Zm38.7.2v66H660.9v-66Zm-250.25.25,29.9,43.05V472.3h12.5v65.25H454.2L424,494.6v42.95H411.9V472.3Zm97,0v9.4H493.65v17.2H520v10h-26.3V527H523.4v10.7h-43V472.3H521.7Zm33.35-.5q12,0,19.2,4.9a15.41,15.41,0,0,1,7.1,13.35,15.07,15.07,0,0,1-3.5,9.95,20,20,0,0,1-9.35,6.05,22.51,22.51,0,0,1,5.9,5.9q2.55,3.56,6.3,12.45,2.44,5.51,4,8.3a.21.21,0,0,0,0,.15l2.7,4.7H571.35l-1.75-4.35-.08-.12c-.08-.12-.19-.3-.32-.53l-5-12.1a1.17,1.17,0,0,1-.2-.35c-.27-.53-.53-1-.8-1.45l-.5-.8c-.4-.67-.8-1.28-1.2-1.85l-.7-1q-.3-.4-.6-.75a15.18,15.18,0,0,0-4.1-3.35,5.24,5.24,0,0,0-.95-.6,6.47,6.47,0,0,0-2.1-.35h-4.05v27.6H535.1V471.8Zm10.65,13.5a9,9,0,0,0-5-3.1,23.09,23.09,0,0,0-3.35-.8c-1.3-.13-3.15-.2-5.55-.2h-3.1v18.5h4a45.93,45.93,0,0,0,5.55-.25,17.91,17.91,0,0,0,3.2-.85,9.31,9.31,0,0,0,4.45-3.25,8.48,8.48,0,0,0,1.6-5.05A7.68,7.68,0,0,0,565.7,485.3Zm-296.6-9.63-4.18,9.58a35.64,35.64,0,0,0-15.22-3.65,22.47,22.47,0,0,0-16.7,6.75,23,23,0,0,0-6.65,16.85q0,10.2,6.55,16.8t16.65,6.55A34.29,34.29,0,0,0,265,524.78l4.14,9.52a46.61,46.61,0,0,1-22,5.05q-10.69,0-18.1-4.5a32.28,32.28,0,0,1-11.8-12.5,34.89,34.89,0,0,1-4.4-17.15,33.71,33.71,0,0,1,10-24.75A33,33,0,0,1,247.3,470.4Q257.15,470.4,269.1,475.67Zm128.9-3H362.7v21.2h32.85v10.2H362.7V526H400v11.45H350v-76.4H398Zm-265.35-.65v9.4H104.6V498.9H131v10H104.6V527h29.05v10.45H92.1v-65.4ZM187,476.3a31,31,0,0,1,12.9,11.85,32.13,32.13,0,0,1,4.75,17.05,31.2,31.2,0,0,1-2.6,12.6,32,32,0,0,1-7.55,10.6,33,33,0,0,1-11.5,7.1,33.68,33.68,0,0,1-7,2,120.46,120.46,0,0,1-12.35.4H147.1V472.3H165Q178.8,472.3,187,476.3ZM172.85,483a68,68,0,0,0-9.6-.5H159.3V526.8h4.25A51.74,51.74,0,0,0,174.2,526a27.27,27.27,0,0,0,6.4-2.2,21,21,0,0,0,4.65-3.35A21.26,21.26,0,0,0,192,504.2a20,20,0,0,0-6.95-15.7,21.78,21.78,0,0,0-5.9-3.65A27.09,27.09,0,0,0,172.85,483Zm165.4,22.25q0,14.51-9.45,24.1T305,538.8A30.77,30.77,0,0,1,282,529.3q-9.11-9.6-9.1-23.9,0-14.75,9.2-24.4t23.35-9.7q14.1,0,23.5,9.7T338.25,505.2ZM305.7,482.5a17.69,17.69,0,0,0-14,6.45q-5.55,6.45-5.55,16.45,0,9.71,5.55,16.05a18.06,18.06,0,0,0,27.75-.1q5.6-6.5,5.6-16.3a23.55,23.55,0,0,0-5.6-16A17.31,17.31,0,0,0,305.7,482.5ZM77.2,461.05V537.6H64.5V481.3L38.15,514.35l-25-33.05v56.3H0V461.05H12.45L38.25,495l27.05-33.9Z"/><path class="cls-2" d="M783,77.05,754.2,104.4h61v25.9h-99.6V107.25l31.4-30.35-31.4-30.2V23.35h99.6V49h-61ZM388.6,74.7Q337.35,126,337.35,198.45T388.6,322.2q51.25,51.3,123.75,51.3T636.1,322.2q51.26-51.26,51.25-123.75T636.1,74.7Q584.84,23.45,512.35,23.45T388.6,74.7ZM372.05,58.1Q430.21,0,512.4,0T652.75,58.1q58.15,58.15,58.15,140.35T652.75,338.8Q594.6,397,512.4,397T372.05,338.8q-58.16-58.1-58.15-140.35T372.05,58.1Zm179,72.2h23l30.35,31.4,30.2-31.4H658v99.6H632.3V168.85l-28,28.8-27.35-28.8V229.9H551Z"/></g></g></svg>